<?xml version="1.0" standalone="no"?>
<!DOCTYPE svg PUBLIC "-//W3C//DTD SVG 20010904//EN"
 "http://www.w3.org/TR/2001/REC-SVG-20010904/DTD/svg10.dtd">
<svg version="1.0" xmlns="http://www.w3.org/2000/svg"
 width="1280.000000pt" height="1280.000000pt" viewBox="0 0 1280.000000 1280.000000"
 preserveAspectRatio="xMidYMid meet">
<metadata>
Created by potrace 1.11, written by Peter Selinger 2001-2013
</metadata>
<g transform="translate(0.000000,1280.000000) scale(0.100000,-0.100000)"
fill="#000000" stroke="none">
<path d="M6269 12656 c-2 -2 -37 -6 -77 -10 -41 -3 -77 -8 -81 -10 -4 -3 -29
-7 -57 -11 -59 -7 -70 -10 -159 -42 -121 -45 -174 -89 -181 -150 -6 -60 47
-112 161 -158 76 -30 73 -29 131 -40 41 -7 43 -9 82 -94 116 -245 162 -509
142 -801 -4 -55 -38 -229 -57 -290 -9 -30 -17 -57 -18 -60 -12 -38 -89 -209
-115 -255 l-28 -50 -93 -11 c-148 -18 -204 -26 -209 -29 -3 -2 -26 -6 -50 -10
-25 -4 -76 -13 -115 -22 -38 -8 -81 -17 -95 -19 -106 -21 -497 -138 -515 -155
-26 -26 -45 -7 -98 99 -29 59 -59 123 -67 142 -7 19 -19 51 -27 70 -43 107
-95 309 -109 420 -24 191 -24 199 13 239 82 89 111 205 67 265 -53 71 -221 85
-384 30 -47 -15 -87 -29 -90 -29 -3 -1 -30 -13 -60 -28 -242 -116 -424 -302
-424 -434 0 -89 78 -144 204 -141 41 1 92 5 114 10 43 10 36 15 122 -87 48
-58 154 -201 154 -209 0 -3 22 -42 48 -88 42 -73 71 -134 117 -243 7 -16 23
-58 35 -93 21 -61 21 -64 3 -77 -18 -14 -104 -59 -113 -60 -7 -1 -131 -70
-230 -128 -206 -122 -482 -322 -633 -459 -20 -17 -38 -12 -187 61 -65 32 -226
132 -240 150 -3 3 -30 26 -60 51 -147 120 -331 333 -444 513 l-47 76 28 28
c124 128 203 267 189 334 -10 50 -32 64 -98 63 -49 -2 -75 -10 -161 -53 -287
-144 -623 -480 -656 -656 -9 -46 -7 -50 21 -78 27 -27 33 -29 83 -24 55 6 157
45 208 80 40 27 65 25 144 -14 251 -122 474 -366 612 -669 58 -128 56 -123 90
-229 35 -108 38 -133 14 -152 -15 -13 -86 -103 -108 -137 -5 -9 -18 -25 -28
-36 -35 -39 -224 -331 -292 -450 -37 -66 -92 -172 -122 -235 -75 -161 -77
-166 -80 -170 -3 -6 -162 78 -247 131 -108 67 -233 166 -328 258 l-78 75 0 57
c0 90 -19 155 -59 200 -31 34 -43 40 -82 43 -30 2 -61 -4 -88 -16 -51 -23
-153 -123 -204 -200 -84 -127 -160 -334 -174 -469 -16 -157 2 -244 59 -297 52
-49 108 -50 188 -5 41 23 150 128 150 144 0 4 10 5 22 3 13 -2 41 -6 63 -9 95
-13 265 -54 282 -68 7 -6 13 -8 13 -4 0 16 341 -131 355 -154 3 -4 -1 -28 -9
-52 -42 -131 -84 -277 -101 -358 -2 -8 -8 -35 -14 -60 -5 -25 -12 -56 -14 -70
-3 -14 -12 -63 -21 -110 -9 -47 -19 -112 -22 -145 -4 -33 -8 -63 -10 -67 -3
-4 -7 -40 -10 -80 -3 -40 -7 -82 -9 -93 -2 -11 -4 -30 -4 -42 -1 -20 -9 -27
-116 -91 -166 -101 -378 -182 -540 -208 -133 -21 -389 -26 -465 -10 -14 3 -52
11 -85 16 -112 20 -252 65 -371 120 -77 36 -82 40 -89 76 -5 22 -9 41 -10 44
-10 43 -44 126 -67 165 -71 120 -156 123 -236 8 -12 -17 -22 -38 -22 -47 0 -9
-5 -16 -10 -16 -6 0 -9 -3 -8 -7 1 -5 -5 -30 -14 -58 -20 -58 -47 -188 -55
-260 -9 -85 -11 -407 -2 -470 4 -33 11 -82 14 -110 13 -107 58 -244 102 -313
49 -78 112 -99 175 -58 47 30 116 176 132 276 3 19 13 41 23 48 45 34 271 122
351 137 15 3 37 7 49 10 13 3 33 7 44 10 127 28 476 27 571 -1 9 -3 25 -6 35
-8 148 -29 391 -133 538 -231 87 -58 103 -74 109 -105 31 -160 42 -211 67
-310 17 -63 37 -140 46 -170 10 -30 17 -57 18 -60 3 -17 71 -213 87 -249 18
-43 18 -45 1 -62 -17 -16 -253 -139 -267 -139 -4 0 -23 -7 -44 -17 -20 -9 -39
-17 -42 -18 -3 0 -34 -10 -70 -22 -58 -18 -93 -29 -167 -48 -28 -7 -43 -10
-128 -23 -138 -22 -139 -22 -175 9 -42 37 -128 78 -171 80 -109 7 -167 -77
-156 -223 6 -68 5 -65 31 -153 63 -210 262 -480 407 -552 161 -80 264 -14 260
167 -1 62 -7 98 -21 134 -8 22 -3 30 42 73 27 26 60 57 72 69 82 79 272 207
416 280 52 27 97 49 100 49 3 1 18 7 33 13 16 7 31 12 35 12 4 0 24 -35 45
-78 58 -116 116 -214 232 -391 62 -97 195 -281 219 -307 6 -6 25 -29 41 -50
17 -21 49 -60 72 -86 l42 -48 -16 -52 c-8 -29 -22 -65 -29 -80 -8 -15 -13 -29
-12 -30 5 -6 -37 -102 -88 -203 -129 -253 -315 -459 -519 -576 -79 -45 -102
-56 -150 -72 -38 -13 -42 -12 -93 20 -29 18 -55 33 -59 33 -4 0 -25 9 -48 20
-23 11 -65 22 -93 25 -108 9 -135 -66 -70 -194 18 -35 37 -69 43 -75 5 -6 23
-29 40 -51 51 -69 184 -206 265 -271 19 -16 37 -31 40 -34 3 -3 21 -17 40 -30
19 -13 37 -27 40 -30 11 -13 111 -72 168 -100 77 -37 118 -46 185 -41 26 2 56
57 50 94 -9 58 -79 187 -135 249 -7 8 -28 30 -46 49 l-32 35 56 84 c152 231
347 431 566 583 63 44 256 147 274 147 5 0 21 7 36 14 52 27 63 23 170 -60 57
-44 126 -96 153 -114 28 -19 55 -38 60 -43 45 -37 336 -211 455 -271 52 -27
99 -52 104 -57 15 -13 -71 -172 -175 -325 -46 -68 -139 -177 -220 -259 l-80
-79 -57 -2 c-164 -6 -237 -45 -249 -133 -9 -65 19 -123 102 -207 39 -41 76
-74 81 -74 6 0 19 -8 30 -17 44 -40 171 -102 279 -138 147 -47 161 -50 270
-50 92 0 118 4 157 22 125 57 114 188 -28 325 -46 45 -62 68 -58 81 3 10 8 33
10 52 15 121 98 373 172 520 19 39 44 87 54 109 23 45 14 45 183 -14 66 -23
125 -43 130 -44 6 -2 42 -12 80 -24 39 -11 81 -23 95 -26 14 -3 52 -12 85 -21
33 -9 74 -19 90 -22 42 -7 60 -11 60 -13 0 -1 11 -4 25 -6 46 -8 195 -33 233
-38 78 -12 112 -18 117 -21 5 -3 40 -72 78 -155 53 -115 103 -309 117 -455 7
-70 7 -258 1 -295 -3 -14 -7 -47 -10 -75 -10 -86 -56 -256 -99 -360 -62 -153
-64 -155 -149 -177 -72 -19 -178 -64 -208 -90 -119 -100 -21 -220 225 -279
116 -27 115 -27 199 -36 84 -9 423 -9 481 0 22 3 63 9 90 13 161 21 327 88
368 149 13 19 23 45 21 57 -1 13 -3 28 -3 34 -3 41 -163 137 -251 150 -89 15
-96 22 -161 184 -52 131 -80 240 -105 420 -8 52 -8 279 0 325 4 22 9 58 12 80
9 76 58 250 89 320 8 17 27 60 43 96 16 37 34 69 39 72 14 9 58 16 148 23 82
6 126 11 135 14 3 1 9 2 13 1 5 -1 47 5 95 14 48 8 104 17 126 21 21 3 48 8
60 10 11 3 32 7 46 10 135 27 414 106 548 155 29 10 57 19 62 19 12 0 89 -163
133 -280 35 -94 80 -258 92 -335 10 -71 25 -170 25 -176 0 -3 -14 -24 -31 -45
-46 -57 -79 -133 -79 -182 0 -93 62 -140 182 -140 196 1 460 127 633 303 161
163 183 297 59 360 -44 23 -160 25 -234 5 -39 -10 -44 -9 -67 12 -60 54 -180
200 -241 291 -52 78 -172 296 -172 312 0 2 51 29 113 59 307 151 681 399 905
601 53 47 55 47 152 15 157 -52 345 -158 480 -269 180 -148 366 -362 493 -567
3 -6 -5 -24 -19 -40 -107 -121 -187 -258 -187 -321 0 -141 251 -61 515 164 44
38 186 179 225 224 88 103 153 219 153 277 0 33 -28 71 -55 73 -8 1 -21 2 -27
3 -7 1 -26 -2 -43 -7 -16 -4 -35 -9 -40 -10 -15 -3 -129 -59 -135 -66 -3 -3
-17 -12 -32 -20 -31 -16 -43 -12 -168 50 -64 31 -177 107 -216 143 -245 230
-393 473 -494 811 -11 39 -25 85 -31 103 -9 27 -8 36 4 45 17 14 97 123 191
260 73 108 183 293 246 416 l41 80 67 -25 c105 -39 120 -46 231 -102 184 -94
338 -203 479 -339 l82 -80 1 -59 c2 -111 18 -161 64 -204 32 -30 101 -34 155
-7 104 51 219 209 294 402 140 365 62 657 -149 555 -43 -21 -121 -93 -154
-144 -10 -14 -20 -24 -22 -21 -3 2 -25 7 -50 10 -126 14 -226 37 -373 86 -200
66 -490 216 -482 249 2 8 23 67 45 130 56 155 120 371 145 491 3 13 8 35 10
49 3 14 8 36 11 50 2 14 9 48 15 75 14 71 19 104 25 150 13 99 9 95 140 173
136 80 338 164 455 187 14 3 36 7 50 10 14 3 36 7 50 10 84 17 263 23 386 12
78 -7 258 -41 301 -58 15 -6 37 -13 47 -15 32 -6 148 -53 205 -82 49 -26 55
-33 68 -78 52 -176 88 -245 143 -275 90 -49 175 66 224 305 25 121 31 194 30
391 -1 184 -4 235 -25 340 -5 28 -11 59 -13 71 -20 104 -85 238 -129 265 -43
26 -86 17 -124 -26 -30 -34 -78 -138 -87 -188 -3 -12 -5 -22 -6 -22 -2 0 -8
-26 -13 -52 -11 -56 -355 -172 -589 -200 -110 -12 -381 -6 -428 11 -8 3 -28 7
-45 10 -117 21 -268 74 -401 142 -105 53 -208 119 -210 132 -5 49 -33 262 -39
293 -2 9 -6 32 -9 50 -5 28 -21 109 -41 204 -13 60 -36 149 -55 215 -12 41
-24 84 -27 96 -4 18 10 30 84 76 119 75 172 103 278 150 150 66 339 124 472
144 21 3 51 7 66 10 19 3 40 -4 70 -24 144 -99 239 -99 290 -1 14 27 17 50 14
109 -5 75 -7 89 -26 151 -29 97 -79 195 -150 296 -150 212 -336 331 -443 283
-36 -17 -68 -74 -72 -130 -3 -46 13 -162 29 -202 5 -12 -14 -38 -72 -95 -130
-128 -246 -218 -388 -302 -84 -50 -247 -131 -262 -131 -5 0 -21 33 -37 73 -66
164 -248 513 -336 642 -15 22 -36 53 -46 69 -25 38 -41 62 -90 132 -46 67 -46
55 2 229 141 512 429 882 814 1048 55 23 55 24 85 4 60 -38 171 -87 216 -95
34 -7 53 -5 73 5 91 48 3 227 -223 453 -221 220 -449 360 -573 351 -46 -3 -75
-79 -49 -129 5 -9 15 -30 22 -47 16 -37 88 -140 124 -179 62 -67 62 -65 -1
-158 -167 -244 -372 -452 -584 -592 -139 -92 -359 -187 -471 -202 -41 -6 -47
-3 -82 29 -20 20 -58 53 -85 74 -26 21 -53 44 -60 51 -8 7 -30 25 -50 40 -21
15 -42 32 -48 37 -6 6 -37 28 -68 50 -31 22 -77 55 -101 73 -24 17 -49 32 -54
32 -6 0 -11 3 -11 8 0 4 -17 16 -37 27 -20 11 -41 25 -47 30 -6 6 -24 17 -40
25 -57 29 -66 35 -66 42 0 5 -4 8 -10 8 -5 0 -33 14 -62 31 -29 18 -111 61
-183 97 -71 36 -131 66 -133 68 -21 16 175 408 260 519 108 140 275 324 295
325 5 1 40 2 78 4 95 4 150 23 185 63 30 34 34 46 31 96 -7 128 -234 310 -491
396 -210 69 -414 62 -481 -15 -63 -73 -23 -188 101 -294 53 -45 52 -40 29
-156 -5 -28 -12 -62 -14 -76 -29 -157 -158 -468 -256 -616 -16 -24 -29 -47
-29 -53 0 -5 -4 -9 -8 -9 -5 0 -14 -11 -20 -24 l-11 -25 -98 34 c-105 36 -302
94 -343 101 -14 3 -52 11 -85 19 -66 15 -214 44 -257 51 -128 19 -202 28 -264
33 -6 1 -37 54 -69 119 -31 64 -61 124 -65 133 -11 21 -68 224 -75 269 -19
109 -23 181 -20 320 4 173 5 183 42 330 41 169 126 376 155 378 45 3 195 53
238 80 41 26 90 85 90 110 1 90 -138 174 -340 207 -19 3 -48 8 -65 12 -16 3
-43 8 -60 10 -45 5 -411 13 -416 9z"/>
</g>
</svg>
